<svg xmlns="http://www.w3.org/2000/svg" width="105" height="70" viewBox="0 0 105 70">
    <g fill="none" fill-rule="evenodd">
        <path fill="#ADEEDD" d="M77.74 27.1v29.055H31.474a2.214 2.214 0 0 1-2.214-2.215V29.315c0-1.223.991-2.215 2.214-2.215H77.74z"/>
        <g stroke="#410062" stroke-linecap="round" stroke-width="1.816">
            <path stroke-linejoin="round" d="M70.415 56.108H42.948M29.075 43.483V29.914a3.08 3.08 0 0 1 3.08-3.082h24.262m18.862 0a3.08 3.08 0 0 1 3.08 3.082V53.026a3.08 3.08 0 0 1-3.08 3.082H68.07V38.45M50.642 38.715V35.13h5.775M45.112 23.394v-2.093c0-1.223.992-2.214 2.215-2.214H60.61c1.223 0 2.214.991 2.214 2.214v1.215"/>
            <path d="M39.306 27.471v14.156"/>
        </g>
        <path fill="#FFF" d="M73.407 37.113c2.721-4.073 4.654-6.344 5.8-6.812 5.49-2.244 9.366-7.714 9.366-14.106C88.573 7.803 81.89 1 73.649 1c-8.243 0-14.924 6.803-14.924 15.195 0 6.142 3.58 11.434 8.731 13.829 1.258.585 3.241 2.947 5.95 7.089z"/>
        <path stroke="#410062" stroke-linecap="round" stroke-width="1.816" d="M79.203 30.443a14.984 14.984 0 0 0 9.37-13.908 14.98 14.98 0 0 0-1.17-5.824m-8.359-7.918a14.827 14.827 0 0 0-5.948-1.237c-8.242 0-14.924 6.706-14.924 14.98 0 6.304 3.88 11.7 9.376 13.91"/>
        <path fill="#EE6151" d="M73.988 24.769c3.63 0 6.957-4.768 6.957-10.08 0-4.043-3.85-4.98-6.845-2.01-.75.743-2.01-1.879-2.99-1.879-4.1 0-4.403-.224-4.403 3.89 0 4.112 3.652 10.079 7.281 10.079z"/>
        <path stroke="#410062" stroke-linecap="round" stroke-linejoin="round" stroke-width="1.816" d="M81.493 14.444c0-2.16-1.73-3.911-3.864-3.911-1.367 0-2.704.538-3.53 2.767"/>
        <path stroke="#410062" stroke-linecap="round" stroke-linejoin="round" stroke-width="1.816" d="M66.713 14.444c0-2.16 1.73-3.911 3.864-3.911 1.367 0 2.713.569 3.523 2.767M66.707 14.577c0 3.856 2.473 7.164 7.42 9.924 4.91-2.61 7.366-5.962 7.366-10.057M79.176 30.446l-5.691 7.778-5.917-7.776"/>
        <g stroke="#410062" stroke-linecap="round" stroke-width="1.816">
            <path d="M103.67 55.792H87.397M9.854 55.792H1"/>
        </g>
        <g fill-rule="nonzero" transform="rotate(1 -2666.997 1091.362)">
            <path fill="#FDFDFD" d="M17.925 17.86l-3.82.067-3.365 4.245-3.411-4.126-6.997.122L.066 2.92A2.295 2.295 0 0 1 2.322.587l16.076-.28a2.295 2.295 0 0 1 2.337 2.252l.306 14.88a.375.375 0 0 1-.37.383l-2.746.039z"/>
            <path stroke="#410062" stroke-linecap="round" stroke-linejoin="round" stroke-width="1.816" d="M17.925 17.86l-3.82.067-3.365 4.245-3.411-4.126-6.997.122L.066 2.92A2.295 2.295 0 0 1 2.322.587l16.076-.28a2.295 2.295 0 0 1 2.337 2.252l.153 8.793"/>
            <path fill="#91C8BA" d="M10.733 15.138c-.519 0-4.9-3.748-4.9-6.369 0-2.62 2.194-4.745 4.9-4.745 2.705 0 4.899 2.124 4.899 4.745s-4.38 6.37-4.9 6.37z"/>
            <path stroke="#410062" stroke-linecap="round" stroke-linejoin="round" stroke-width="1.816" d="M10.733 15.138c-.519 0-4.9-3.748-4.9-6.369m4.9-4.745c2.705 0 4.899 2.124 4.899 4.745s-4.38 6.37-4.9 6.37"/>
            <ellipse cx="10.595" cy="8.932" fill="#FFF" rx="1.506" ry="1.483" transform="rotate(11 10.595 8.932)"/>
        </g>
    </g>
</svg>
